<svg viewBox="0 0 500 500" xmlns="http://www.w3.org/2000/svg" xmlns:xlink="http://www.w3.org/1999/xlink" width="100%" id="blobSvg">
  <path id="blob" fill-opacity=".5"  d="M440,288Q484,326,461.5,356.5Q439,387,404,400.5Q369,414,338,419.5Q307,425,278.5,429.5Q250,434,217.5,442.5Q185,451,168,418.5Q151,386,117.5,378Q84,370,71,341Q58,312,65,281Q72,250,43.5,212Q15,174,44,147.5Q73,121,116.5,123.5Q160,126,179,108.5Q198,91,224,64Q250,37,284,38.5Q318,40,335.5,74Q353,108,364,133.5Q375,159,429.5,166.5Q484,174,440,212Q396,250,440,288Z" fill="#5b12d3"></path>
</svg>