<svg width="136" height="249" viewBox="0 0 136 249" fill="none" xmlns="http://www.w3.org/2000/svg">
<path d="M59.722 163.776L49.4781 248.699H46.1191L56.3621 163.776H59.722Z" fill="#D2DCFF"/>
<path d="M14.4551 163.775L13.3021 173.326L4.21204 248.698H0.852051L9.98804 172.952L11.095 163.775H14.4551Z" fill="#D2DCFF"/>
<path d="M59.722 248.698H56.3621L54.9451 236.953L53.2661 223.027L47.7411 177.221L46.1191 163.775H49.4791L51.147 177.605L54.9451 209.099L56.6251 223.025L59.722 248.698Z" fill="#D2DCFF"/>
<path d="M104.989 248.698H101.629L93.6791 182.783H93.678L91.386 163.775H94.746L97.0831 183.15L104.989 248.698Z" fill="#D2DCFF"/>
<path d="M14.6191 107.006H11.259V158.376H14.6191V107.006Z" fill="#D2DCFF"/>
<path d="M60.2701 107.006H56.9111V158.376H60.2701V107.006Z" fill="#D2DCFF"/>
<path d="M96.1561 158.376H49.9971C51.4881 158.376 52.6971 159.585 52.6971 161.076C52.6971 162.567 51.4881 163.776 49.9971 163.776H96.1561C97.6471 163.776 98.8561 162.567 98.8561 161.076C98.8551 159.584 97.6471 158.376 96.1561 158.376Z" fill="#D2DCFF"/>
<path d="M52.696 161.075C52.696 159.584 51.487 158.375 49.996 158.375H14.6901H10.1421C8.65109 158.375 7.44208 159.584 7.44208 161.075C7.44208 162.566 8.65109 163.775 10.1421 163.775H14.6901H49.9971C51.4881 163.775 52.696 162.566 52.696 161.075Z" fill="#86A2E2"/>
<path d="M63.0151 68.347H8.51404C6.43604 68.347 4.75104 70.032 4.75104 72.11V103.244C4.75104 105.322 6.43604 107.007 8.51404 107.007H63.0151C65.0931 107.007 66.7781 105.322 66.7781 103.244V72.11C66.7781 70.031 65.0931 68.347 63.0151 68.347Z" fill="#D2DCFF"/>
<path d="M14.4551 163.775L13.303 173.326C12.089 173.189 10.9801 173.064 9.98907 172.953L11.0961 163.775H14.4551Z" fill="#AEC3FF"/>
<path d="M49.4791 163.775L51.147 177.605C50.006 177.477 48.8701 177.348 47.7411 177.221L46.1191 163.775H49.4791Z" fill="#AEC3FF"/>
<path d="M97.0831 183.15C95.9991 183.034 94.8621 182.912 93.6791 182.783H93.678L91.386 163.775H94.746L97.0831 183.15Z" fill="#AEC3FF"/>
<path d="M11.259 107.006H14.6191V114.101L11.259 113.729V107.006Z" fill="#AEC3FF"/>
<path d="M60.2701 107.006V119.154L56.9111 118.783V107.006H60.2701Z" fill="#AEC3FF"/>
<path d="M78.5031 21.0981C65.4131 23.2801 49.103 18.4081 47.058 15.3051C42.319 22.5271 39.9111 22.3011 39.9111 22.3011V27.7171L38.8411 26.6471C38.5111 25.9011 37.9871 25.1601 37.2031 25.1601C32.8931 25.1601 32.5921 37.1481 39.8461 37.8411C39.9891 38.3111 40.1371 38.7501 40.2881 39.1481V58.3361H56.6501V50.7891C57.7501 51.0911 58.804 51.2641 59.772 51.2641C66.223 51.2641 77.216 41.7781 78.462 26.6471C78.537 23.7921 78.5031 21.0981 78.5031 21.0981Z" fill="#FCBEB7"/>
<path d="M58.6431 0.561035C47.3591 0.561035 45.1021 6.57903 45.1021 6.57903C40.2871 6.57903 32.9151 15.381 37.3541 25.16L37.3771 25.183L39.9121 27.718V22.302C39.9121 22.302 42.3191 22.528 47.0591 15.306C49.1041 18.408 65.4151 23.28 78.5041 21.099C78.5041 21.099 78.5381 23.793 78.4631 26.648C78.4631 26.651 78.4631 26.654 78.4631 26.657C83.3511 12.513 73.5381 0.561035 58.6431 0.561035Z" fill="#311643"/>
<path d="M53.7911 30.778C53.2921 30.778 52.8881 30.374 52.8881 29.875V28.189C52.8881 27.69 53.2921 27.286 53.7911 27.286C54.2901 27.286 54.694 27.69 54.694 28.189V29.875C54.694 30.374 54.2891 30.778 53.7911 30.778Z" fill="#311643"/>
<path d="M70.5291 30.778C70.0301 30.778 69.626 30.374 69.626 29.875V28.189C69.626 27.69 70.0301 27.286 70.5291 27.286C71.0281 27.286 71.4321 27.69 71.4321 28.189V29.875C71.4321 30.374 71.0281 30.778 70.5291 30.778Z" fill="#311643"/>
<path d="M60.428 41.315C58.817 41.315 57.7201 40.709 57.0551 40.157C56.2171 39.461 55.8691 38.702 55.8541 38.67C55.7601 38.462 55.853 38.217 56.061 38.123C56.269 38.029 56.513 38.122 56.608 38.329C56.655 38.431 57.7991 40.831 61.1241 40.446C61.3511 40.42 61.5561 40.583 61.5831 40.81C61.6101 41.037 61.447 41.242 61.22 41.269C60.943 41.301 60.679 41.315 60.428 41.315Z" fill="#311643"/>
<path d="M56.649 58.336V50.789C52.949 49.772 48.737 47.281 45.571 44.906L56.649 58.336Z" fill="#F9AFAB"/>
<path d="M103.138 187.346L99.7211 186.878L96.4861 160.056H99.8461L103.138 187.346Z" fill="#EBEDF4"/>
<path d="M94.0641 84.847L97.0311 90.5351H81.217L94.0641 84.847Z" fill="#FCBEB7"/>
<path d="M63.774 233.867V246.113C63.774 247.541 64.932 248.699 66.36 248.699H101.094C101.424 248.699 101.692 248.431 101.692 248.101V245.844C101.692 244.755 101.057 243.766 100.067 243.312L79.983 233.867H63.774Z" fill="#2F3D6C"/>
<path d="M63.774 226.9L63.7831 233.867H79.9821L81.1031 226.9H63.774Z" fill="#FCBEB7"/>
<path d="M56.621 51.219L78.6141 61.153C81.6381 62.519 84.0991 64.886 85.5811 67.855L94.0641 84.847L81.217 90.535L82.2811 128.095H18.261L21.0561 93.016L9.47809 93.091V73.898C9.47809 67.953 13.0501 62.591 18.5361 60.3L40.287 51.218C40.288 51.219 49.79 57.454 56.621 51.219Z" fill="#89AEFF"/>
<path d="M61.2021 53.2071C57.8931 55.8821 53.8031 57.3341 49.4891 57.3341C44.9201 57.3341 40.454 55.5561 37.05 52.5701L36.35 52.8621C39.906 56.0701 44.663 57.9961 49.488 57.9961C54.071 57.9961 58.4121 56.4121 61.8831 53.5031L61.2021 53.2071Z" fill="white"/>
<path d="M97.8611 233.867V246.113C97.8611 247.541 99.0191 248.699 100.447 248.699H135.181C135.512 248.699 135.779 248.431 135.779 248.101V245.844C135.779 244.755 135.144 243.766 134.154 243.312L114.07 233.867H97.8611Z" fill="#2F3D6C"/>
<path d="M97.8611 226.9L97.8691 233.867H114.069L115.189 226.9H97.8611Z" fill="#FCBEB7"/>
<path d="M52.3461 128.095L52.345 128.749C52.332 145.2 65.6651 158.543 82.1171 158.543H95.9471L97.8611 226.899H115.19L127.967 145.397C129.392 136.309 122.365 128.095 113.166 128.095H52.3461Z" fill="#6277D7"/>
<path d="M128.15 143.113C126.658 145.296 124.147 146.729 121.302 146.729C116.721 146.729 113.008 143.016 113.008 138.435C113.008 134.036 116.432 130.437 120.761 130.159C125.23 132.793 128.174 137.672 128.15 143.113Z" fill="#4A5EA3"/>
<path d="M94.0621 142.793L95.9471 158.544H84.6L94.0621 142.793Z" fill="#4A5EA3"/>
<path d="M18.259 128.095V128.749C18.246 145.2 31.5791 158.543 48.0311 158.543H61.8611L63.7751 226.899H81.1041L93.8811 145.397C95.3061 136.309 88.2791 128.095 79.0801 128.095H18.259Z" fill="#6277D7"/>
<path d="M9.47906 93.0911L10.095 114.364C10.261 120.113 14.97 124.688 20.722 124.688H57.7531L60.2391 116.027L27.5751 110.643L27.3441 92.9751L9.47906 93.0911Z" fill="#FCBEB7"/>
<path d="M20.4611 120.264C20.4611 121.945 19.705 123.451 18.514 124.458C14.686 123.649 11.61 120.78 10.519 117.049C11.516 115.67 13.138 114.773 14.97 114.773C18.003 114.773 20.4611 117.231 20.4611 120.264Z" fill="#F9AFAB"/>
<path d="M27.3441 92.9761L32.3591 111.432L27.5751 110.643L27.3441 92.9761Z" fill="#4A62D3"/>
<path d="M55.6761 115.275L49.8381 124.688H57.7531L60.2391 116.027L55.6761 115.275Z" fill="#F9AFAB"/>
<path d="M119.309 90.535H71.0231C68.9711 90.535 67.1671 91.894 66.6011 93.866L57.7531 124.687H38.173C37.232 124.687 36.4691 125.45 36.4691 126.391C36.4691 127.332 37.232 128.095 38.173 128.095H56.7751H62.6901H114.634L123.731 96.405C124.575 93.465 122.368 90.535 119.309 90.535Z" fill="#4A5EA3"/>
<path d="M94.0621 142.793C92.6011 145.155 89.9871 146.728 87.0051 146.728C82.4241 146.728 78.7111 143.015 78.7111 138.434C78.7111 133.97 82.237 130.329 86.657 130.147C91.049 132.729 93.9721 137.475 94.0621 142.793Z" fill="#4A5EA3"/>
<path d="M94.6044 110.672C94.731 109.232 94.0343 107.995 93.0484 107.908C92.0625 107.822 91.1606 108.918 91.034 110.358C90.9075 111.797 91.6042 113.034 92.5901 113.121C93.576 113.207 94.4779 112.111 94.6044 110.672Z" fill="#89AEFF"/>
<path d="M19.1921 68.1121C19.1921 70.7941 17.0171 72.9691 14.3351 72.9691C12.4001 72.9691 10.7311 71.8381 9.95007 70.2021C10.6361 67.5511 12.049 65.1501 14.011 63.2671C14.118 63.2601 14.2261 63.2561 14.3351 63.2561C17.0181 63.2551 19.1921 65.4301 19.1921 68.1121Z" fill="#4A62D3"/>
<path d="M85.2811 67.2861C84.5071 67.8071 83.5751 68.1111 82.5721 68.1111C79.8901 68.1111 77.7161 65.9361 77.7161 63.2541C77.7161 62.4391 77.9161 61.6711 78.2711 60.9971L78.6141 61.1521C81.4431 62.4301 83.7781 64.5841 85.2811 67.2861Z" fill="#4A62D3"/>
</svg>
