<svg xmlns="http://www.w3.org/2000/svg" viewBox="0 0 1440 320">
  <path fill="#5B12D3" fill-opacity=".5" d="M0,128L18.5,112C36.9,96,74,64,111,80C147.7,96,185,160,222,208C258.5,256,295,288,332,266.7C369.2,245,406,171,443,128C480,85,517,75,554,101.3C590.8,128,628,192,665,224C701.5,256,738,256,775,224C812.3,192,849,128,886,138.7C923.1,149,960,235,997,229.3C1033.8,224,1071,128,1108,117.3C1144.6,107,1182,181,1218,218.7C1255.4,256,1292,256,1329,266.7C1366.2,277,1403,299,1422,309.3L1440,320L1440,320L1421.5,320C1403.1,320,1366,320,1329,320C1292.3,320,1255,320,1218,320C1181.5,320,1145,320,1108,320C1070.8,320,1034,320,997,320C960,320,923,320,886,320C849.2,320,812,320,775,320C738.5,320,702,320,665,320C627.7,320,591,320,554,320C516.9,320,480,320,443,320C406.2,320,369,320,332,320C295.4,320,258,320,222,320C184.6,320,148,320,111,320C73.8,320,37,320,18,320L0,320Z"></path>
</svg>